<svg xmlns="http://www.w3.org/2000/svg" viewBox="0 0 512 512" width="512" height="512">
  <defs>
    <linearGradient id="bg" x1="0" y1="0" x2="1" y2="1">
      <stop offset="0" stop-color="#8b7bff"/>
      <stop offset="1" stop-color="#4fd1c5"/>
    </linearGradient>
    <linearGradient id="pg" x1="0" y1="0" x2="1" y2="1">
      <stop offset="0" stop-color="#ffffff"/>
      <stop offset="1" stop-color="#eef0fb"/>
    </linearGradient>
  </defs>
  <rect width="512" height="512" rx="120" fill="url(#bg)"/>
  <g transform="translate(256 256)">
    <path d="M-92 -118 C-128 -130 -150 -126 -156 -118 V118 C-150 110 -128 114 -92 102 Z" fill="#ffffff" opacity="0.96"/>
    <path d="M92 -118 C128 -130 150 -126 156 -118 V118 C150 110 128 114 92 102 Z" fill="url(#pg)"/>
    <path d="M-92 -118 C-56 -130 56 -130 92 -118 C56 -106 -56 -106 -92 -118 Z" fill="#ff8fb1"/>
    <g stroke="#c7ccdf" stroke-width="9" stroke-linecap="round">
      <line x1="-70" y1="-52" x2="70" y2="-52"/>
      <line x1="-70" y1="-8" x2="70" y2="-8"/>
      <line x1="-70" y1="36" x2="40" y2="36"/>
    </g>
  </g>
</svg>
