<svg xmlns="http://www.w3.org/2000/svg" viewBox="0 0 512 512" width="512" height="512">
  <defs>
    <linearGradient id="bg" x1="0" y1="0" x2="1" y2="1">
      <stop offset="0" stop-color="#8b7bff"/>
      <stop offset="0.55" stop-color="#7a6cf0"/>
      <stop offset="1" stop-color="#4fd1c5"/>
    </linearGradient>
    <linearGradient id="pg" x1="0" y1="0" x2="1" y2="1">
      <stop offset="0" stop-color="#ffffff"/>
      <stop offset="1" stop-color="#e8ebf7"/>
    </linearGradient>
    <linearGradient id="pg2" x1="0" y1="0" x2="1" y2="1">
      <stop offset="0" stop-color="#f3f4fb"/>
      <stop offset="1" stop-color="#d7dcef"/>
    </linearGradient>
    <radialGradient id="glow" cx="0.5" cy="0.35" r="0.7">
      <stop offset="0" stop-color="#ffffff" stop-opacity="0.35"/>
      <stop offset="1" stop-color="#ffffff" stop-opacity="0"/>
    </radialGradient>
  </defs>
  <rect width="512" height="512" rx="120" fill="url(#bg)"/>
  <rect width="512" height="512" rx="120" fill="url(#glow)"/>
  <g transform="translate(256 264)">
    <!-- left page -->
    <path d="M-118 -126 C-150 -140 -176 -134 -184 -124 V120 C-176 110 -150 116 -118 102 C-86 116 -86 116 -86 116 Z" fill="#ffffff" opacity="0.97"/>
    <!-- right page -->
    <path d="M118 -126 C150 -140 176 -134 184 -124 V120 C176 110 150 116 118 102 C86 116 86 116 86 116 Z" fill="url(#pg)"/>
    <!-- center spine shadow -->
    <path d="M-86 -116 C-40 -128 40 -128 86 -116 C40 -104 -40 -104 -86 -116 Z" fill="#ff8fb1"/>
    <!-- page lines left -->
    <g stroke="#cdd2e6" stroke-width="9" stroke-linecap="round">
      <line x1="-150" y1="-46" x2="-100" y2="-58"/>
      <line x1="-150" y1="-2" x2="-100" y2="-14"/>
      <line x1="-150" y1="42" x2="-118" y2="34"/>
    </g>
    <!-- page lines right -->
    <g stroke="#bcc3dc" stroke-width="9" stroke-linecap="round">
      <line x1="100" y1="-58" x2="150" y2="-46"/>
      <line x1="100" y1="-14" x2="150" y2="-2"/>
      <line x1="118" y1="34" x2="150" y2="42"/>
    </g>
  </g>
</svg>
