<svg xmlns="http://www.w3.org/2000/svg" viewBox="0 0 512 512" width="512" height="512">
  <defs>
    <linearGradient id="bg" x1="0" y1="0" x2="1" y2="1">
      <stop offset="0" stop-color="#9b8bff"/>
      <stop offset="0.5" stop-color="#6f5cf0"/>
      <stop offset="1" stop-color="#36cdbd"/>
    </linearGradient>
    <linearGradient id="pageL" x1="0" y1="0" x2="1" y2="1">
      <stop offset="0" stop-color="#ffffff"/>
      <stop offset="1" stop-color="#e7eaf7"/>
    </linearGradient>
    <linearGradient id="pageR" x1="0" y1="0" x2="1" y2="1">
      <stop offset="0" stop-color="#f4f6fc"/>
      <stop offset="1" stop-color="#d6dcef"/>
    </linearGradient>
    <linearGradient id="ribbon" x1="0" y1="0" x2="0" y2="1">
      <stop offset="0" stop-color="#ffa6c0"/>
      <stop offset="1" stop-color="#ff7aa6"/>
    </linearGradient>
    <radialGradient id="sheen" cx="0.32" cy="0.22" r="0.9">
      <stop offset="0" stop-color="#ffffff" stop-opacity="0.38"/>
      <stop offset="0.5" stop-color="#ffffff" stop-opacity="0.06"/>
      <stop offset="1" stop-color="#ffffff" stop-opacity="0"/>
    </radialGradient>
  </defs>

  <!-- tile -->
  <rect width="512" height="512" rx="118" fill="url(#bg)"/>
  <rect width="512" height="512" rx="118" fill="url(#sheen)"/>

  <g transform="translate(0 6)">
    <!-- back pages (depth) -->
    <path d="M256 156 C198 142 138 147 92 178 L92 322 C138 302 198 308 256 336 Z" fill="#ffffff" opacity="0.55"/>
    <path d="M256 156 C314 142 374 147 420 178 L420 322 C374 302 314 308 256 336 Z" fill="#eef1fb" opacity="0.55"/>

    <!-- front pages -->
    <path d="M256 150 C200 137 140 142 94 172 L94 316 C140 297 200 302 256 330 Z" fill="url(#pageL)"/>
    <path d="M256 150 C312 137 372 142 418 172 L418 316 C372 297 312 302 256 330 Z" fill="url(#pageR)"/>

    <!-- spine shadow -->
    <path d="M250 150 L262 150 L259 330 L253 330 Z" fill="#000000" opacity="0.10"/>

    <!-- page lines -->
    <g stroke="#c9cfe6" stroke-width="7" stroke-linecap="round">
      <path d="M120 200 C150 192 196 196 226 206" fill="none"/>
      <path d="M120 238 C150 230 196 234 226 244" fill="none"/>
      <path d="M120 276 C150 268 196 272 224 282" fill="none"/>
      <path d="M286 206 C316 196 362 192 392 200" fill="none"/>
      <path d="M286 244 C316 234 362 230 392 238" fill="none"/>
      <path d="M288 282 C316 272 362 268 390 276" fill="none"/>
    </g>

    <!-- ribbon bookmark -->
    <path d="M248 150 L264 150 L264 252 L256 238 L248 252 Z" fill="url(#ribbon)"/>
  </g>
</svg>
